<?xml version="1.0" standalone="no"?>
<!DOCTYPE svg PUBLIC "-//W3C//DTD SVG 20010904//EN"
 "http://www.w3.org/TR/2001/REC-SVG-20010904/DTD/svg10.dtd">
<svg version="1.0" xmlns="http://www.w3.org/2000/svg"
 width="512.000000pt" height="512.000000pt" viewBox="0 0 512.000000 512.000000"
 preserveAspectRatio="xMidYMid meet">
<metadata>
Created by potrace 1.14, written by Peter Selinger 2001-2017
</metadata>
<g transform="translate(0.000000,512.000000) scale(0.100000,-0.100000)"
fill="#000000" stroke="none">
<path d="M0 2560 l0 -2560 2560 0 2560 0 0 2560 0 2560 -2560 0 -2560 0 0
-2560z m3790 55 l0 -1495 -65 0 -65 0 0 1488 c0 819 3 1492 7 1495 3 4 33 7
65 7 l58 0 0 -1495z m-1627 1250 c41 -115 117 -322 167 -460 51 -137 156 -428
235 -645 171 -472 581 -1598 590 -1622 7 -17 -39 -18 -869 -18 l-876 0 0 65 0
65 783 2 784 3 -82 225 c-45 124 -191 524 -325 890 -133 366 -295 811 -360
990 -65 179 -122 336 -127 348 -10 26 -53 -89 -399 -1043 -170 -469 -445
-1227 -517 -1425 l-42 -115 -68 -3 c-37 -2 -67 0 -67 4 0 4 45 129 99 278 103
280 299 818 591 1626 93 256 216 596 274 755 59 160 109 297 112 305 5 13 6
13 14 0 4 -8 42 -109 83 -225z"/>
</g>
</svg>
